<svg xmlns="http://www.w3.org/2000/svg" xmlns:xlink="http://www.w3.org/1999/xlink" viewBox="0 0 209.65 167.63"><defs><style>.cls-1{fill:url(#Degradado_sin_nombre_40);}.cls-2{fill:#fff;}</style><linearGradient id="Degradado_sin_nombre_40" x1="149.45" y1="169.15" x2="43.37" y2="-14.58" gradientUnits="userSpaceOnUse"><stop offset="0" stop-color="#bd2040"/><stop offset="0.34" stop-color="#c12244"/><stop offset="0.71" stop-color="#cd2951"/><stop offset="1" stop-color="#dd3161"/></linearGradient></defs><title>portfolioLogoicon</title><g id="Capa_2" data-name="Capa 2"><g id="Capa_1-2" data-name="Capa 1"><path class="cls-1" d="M207.16,94.9c15.76,48.3-46.41,72.73-96.23,72.73S28.3,150.92,8.67,104.12c-12-28.69-12.31-83.71,4-100.39S57.8,32.41,101.9,22.16C150,11,189.12,39.58,207.16,94.9Z"/><path class="cls-2" d="M66.21,56.24A4.33,4.33,0,0,1,69.4,57.5a4.46,4.46,0,0,1,1.27,3.27V92.21a4.45,4.45,0,0,1-1.27,3.23,4.58,4.58,0,0,1-6.39,0,4.44,4.44,0,0,1-1.26-3.23V88.57l1.63.67a4.16,4.16,0,0,1-1,2.34,13.86,13.86,0,0,1-2.82,2.71,17.43,17.43,0,0,1-4.2,2.27,14.47,14.47,0,0,1-5.24.93,17,17,0,0,1-9.29-2.64,18.53,18.53,0,0,1-6.58-7.29A22.76,22.76,0,0,1,31.8,76.9a23,23,0,0,1,2.41-10.74,18.79,18.79,0,0,1,6.51-7.28,16.33,16.33,0,0,1,9.06-2.64,17,17,0,0,1,5.87,1,17.49,17.49,0,0,1,4.65,2.45,14.06,14.06,0,0,1,3.05,3,4.82,4.82,0,0,1,1.07,2.56l-2.67,1V60.77A4.47,4.47,0,0,1,63,57.54,4.26,4.26,0,0,1,66.21,56.24Zm-15,33.07a10.11,10.11,0,0,0,5.73-1.63,11,11,0,0,0,3.82-4.46,15.32,15.32,0,0,0,0-12.71,11,11,0,0,0-3.82-4.46,10.11,10.11,0,0,0-5.73-1.64,9.91,9.91,0,0,0-5.64,1.64,11,11,0,0,0-3.83,4.46,15.32,15.32,0,0,0,0,12.71,11,11,0,0,0,3.83,4.46A9.9,9.9,0,0,0,51.19,89.31Z"/><path class="cls-2" d="M101.58,56.24c3.67,0,6.45.77,8.36,2.3a11.73,11.73,0,0,1,3.94,6.13A31.35,31.35,0,0,1,115,73.18v19a4.41,4.41,0,0,1-1.27,3.23,4.58,4.58,0,0,1-6.39,0A4.44,4.44,0,0,1,106,92.21v-19a14.52,14.52,0,0,0-.63-4.42,6.15,6.15,0,0,0-2.27-3.16,7.89,7.89,0,0,0-4.68-1.19,9.87,9.87,0,0,0-5,1.19,8.23,8.23,0,0,0-3.12,3.16,9.07,9.07,0,0,0-1.08,4.42v19A4.44,4.44,0,0,1,88,95.44a4.58,4.58,0,0,1-6.39,0,4.44,4.44,0,0,1-1.26-3.23V61.52a4.48,4.48,0,0,1,1.26-3.24,4.58,4.58,0,0,1,6.39,0,4.48,4.48,0,0,1,1.26,3.24v3.19l-1.11-.22a14.37,14.37,0,0,1,1.93-2.71,18.61,18.61,0,0,1,3-2.72,15.16,15.16,0,0,1,3.87-2A13.64,13.64,0,0,1,101.58,56.24Z"/><path class="cls-2" d="M156.8,56.24A4.32,4.32,0,0,1,160,57.5a4.46,4.46,0,0,1,1.27,3.27V92.21A4.45,4.45,0,0,1,160,95.44a4.58,4.58,0,0,1-6.39,0,4.44,4.44,0,0,1-1.26-3.23V88.57l1.63.67a4.16,4.16,0,0,1-1,2.34,13.86,13.86,0,0,1-2.82,2.71,17.43,17.43,0,0,1-4.2,2.27,14.47,14.47,0,0,1-5.24.93,17,17,0,0,1-9.29-2.64,18.6,18.6,0,0,1-6.58-7.29,22.76,22.76,0,0,1-2.41-10.66,23,23,0,0,1,2.41-10.74,18.79,18.79,0,0,1,6.51-7.28,16.33,16.33,0,0,1,9.06-2.64,17,17,0,0,1,5.87,1,17.34,17.34,0,0,1,4.65,2.45,14.06,14.06,0,0,1,3.05,3A4.82,4.82,0,0,1,155,65.23l-2.67,1V60.77a4.47,4.47,0,0,1,1.26-3.23A4.26,4.26,0,0,1,156.8,56.24Zm-15,33.07a10.1,10.1,0,0,0,5.72-1.63,11.13,11.13,0,0,0,3.83-4.46,15.42,15.42,0,0,0,0-12.71,11.13,11.13,0,0,0-3.83-4.46,10.1,10.1,0,0,0-5.72-1.64,9.92,9.92,0,0,0-5.65,1.64,11.05,11.05,0,0,0-3.83,4.46,15.32,15.32,0,0,0,0,12.71,11.05,11.05,0,0,0,3.83,4.46A9.91,9.91,0,0,0,141.79,89.31Z"/><path class="cls-2" d="M35.7,123.08a1.39,1.39,0,0,1-.26-.77.63.63,0,0,1,.3-.5.61.61,0,0,1,.53-.18.78.78,0,0,1,.58.3,8.12,8.12,0,0,0,2.65,2.39,7.62,7.62,0,0,0,3.81.91,7.43,7.43,0,0,0,2.53-.43,4.8,4.8,0,0,0,2-1.32,3.11,3.11,0,0,0,.78-2.15,3,3,0,0,0-.76-2.17,5.18,5.18,0,0,0-2-1.3,18.35,18.35,0,0,0-2.51-.79c-.93-.24-1.82-.52-2.65-.82a8.71,8.71,0,0,1-2.21-1.16A5.29,5.29,0,0,1,37,113.44a4.47,4.47,0,0,1-.56-2.27,4.83,4.83,0,0,1,.84-2.79,5.59,5.59,0,0,1,2.35-1.94,8.39,8.39,0,0,1,3.51-.69,9.33,9.33,0,0,1,2,.24,8.44,8.44,0,0,1,2.15.81,7.51,7.51,0,0,1,2,1.62.63.63,0,0,1,.29.58.92.92,0,0,1-.29.61.91.91,0,0,1-.52.16.6.6,0,0,1-.48-.24,6.42,6.42,0,0,0-2.41-1.71,7.76,7.76,0,0,0-2.93-.56,6.79,6.79,0,0,0-2.45.44,4.29,4.29,0,0,0-1.85,1.3,3.25,3.25,0,0,0-.72,2.17,3.07,3.07,0,0,0,.86,2,5.71,5.71,0,0,0,2.07,1.31,24.6,24.6,0,0,0,2.93,1,22.1,22.1,0,0,1,2.45.74,8.15,8.15,0,0,1,2,1.05,4.64,4.64,0,0,1,1.35,1.6,5,5,0,0,1,.5,2.39,4.77,4.77,0,0,1-.89,2.89A5.81,5.81,0,0,1,46.76,126a9.3,9.3,0,0,1-3.61.66,9.85,9.85,0,0,1-4-.84A9.25,9.25,0,0,1,35.7,123.08Z"/><path class="cls-2" d="M72,106.38a.75.75,0,0,1,.58.24.79.79,0,0,1,.22.56v18.29a.76.76,0,0,1-.24.56.77.77,0,0,1-.56.24.75.75,0,0,1-.58-.24.82.82,0,0,1-.22-.56v-5.66l.64-.51a5.85,5.85,0,0,1-.64,2.59,8.5,8.5,0,0,1-1.75,2.39A8.71,8.71,0,0,1,66.78,126a8.1,8.1,0,0,1-3.27.66,8.4,8.4,0,0,1-4.76-1.4,9.69,9.69,0,0,1-3.29-3.78,12,12,0,0,1-1.19-5.38,11.41,11.41,0,0,1,1.21-5.36,9.42,9.42,0,0,1,3.31-3.67,8.6,8.6,0,0,1,4.72-1.33,8.51,8.51,0,0,1,3.23.61,8.35,8.35,0,0,1,2.65,1.74,7.84,7.84,0,0,1,1.77,2.61A8.13,8.13,0,0,1,71.8,114l-.64-1v-5.78a.84.84,0,0,1,.22-.56A.75.75,0,0,1,72,106.38Zm-8.37,18.77a7,7,0,0,0,4-1.17,8,8,0,0,0,2.75-3.23,10.54,10.54,0,0,0,1-4.64,10,10,0,0,0-1-4.48,8,8,0,0,0-2.75-3.19,7,7,0,0,0-4-1.18,7.07,7.07,0,0,0-3.94,1.14,7.89,7.89,0,0,0-2.77,3.13,9.87,9.87,0,0,0-1,4.58,10.4,10.4,0,0,0,1,4.64A7.92,7.92,0,0,0,59.61,124,7,7,0,0,0,63.59,125.15Zm-.48-20.64a.36.36,0,0,1-.31-.16.51.51,0,0,1-.12-.32,1,1,0,0,1,.2-.51l2.47-3.71a1.91,1.91,0,0,1,.37-.42,1,1,0,0,1,.66-.22,1.15,1.15,0,0,1,.74.24.91.91,0,0,1,.3.76.82.82,0,0,1-.08.38,3.11,3.11,0,0,1-.2.3l-3,3.06a3.67,3.67,0,0,1-.46.4A.87.87,0,0,1,63.11,104.51Z"/><path class="cls-2" d="M88.42,105.75a7.56,7.56,0,0,1,4.08,1,6,6,0,0,1,2.32,2.71,9.65,9.65,0,0,1,.73,3.83v12.19a.82.82,0,0,1-.79.8.74.74,0,0,1-.58-.24.78.78,0,0,1-.22-.56v-12a8,8,0,0,0-.58-3.11,4.87,4.87,0,0,0-1.83-2.23,5.84,5.84,0,0,0-3.29-.84,7.58,7.58,0,0,0-3.43.84,8.1,8.1,0,0,0-2.77,2.23A4.92,4.92,0,0,0,81,113.44v12a.76.76,0,0,1-.24.56.77.77,0,0,1-.56.24.75.75,0,0,1-.58-.24.82.82,0,0,1-.22-.56V107.18a.82.82,0,0,1,.8-.8.75.75,0,0,1,.58.24.84.84,0,0,1,.22.56v3.91L80,113a5.39,5.39,0,0,1,.76-2.75,8.45,8.45,0,0,1,2-2.33,9.58,9.58,0,0,1,2.73-1.59A8.12,8.12,0,0,1,88.42,105.75Z"/><path class="cls-2" d="M110.82,105.75a13.45,13.45,0,0,1,3.36.4,8,8,0,0,1,2.55,1c.65.44,1,.9,1,1.38a.79.79,0,0,1-.22.53.67.67,0,0,1-.54.26,1,1,0,0,1-.7-.24,5,5,0,0,1-.53-.57,2.52,2.52,0,0,0-.88-.62,6.13,6.13,0,0,0-1.57-.48,13.47,13.47,0,0,0-2.49-.2,7.8,7.8,0,0,0-4.23,1.2,8.79,8.79,0,0,0-3,3.21,9.08,9.08,0,0,0-1.13,4.52,9.81,9.81,0,0,0,1,4.58,8.09,8.09,0,0,0,3,3.21,8.21,8.21,0,0,0,4.41,1.17,8.7,8.7,0,0,0,2.73-.33,10.63,10.63,0,0,0,1.61-.74,3.66,3.66,0,0,0,1.15-.92,1,1,0,0,1,.76-.44.65.65,0,0,1,.5.2.77.77,0,0,1,.18.52c0,.32-.29.74-.88,1.26a8.06,8.06,0,0,1-2.45,1.37,10.44,10.44,0,0,1-3.72.6,9.48,9.48,0,0,1-8.63-5.12,11.25,11.25,0,0,1-1.26-5.36A10.82,10.82,0,0,1,102,111a10,10,0,0,1,3.51-3.83A9.5,9.5,0,0,1,110.82,105.75Z"/><path class="cls-2" d="M131.3,106.15a7.07,7.07,0,0,1,4,1,6.28,6.28,0,0,1,2.35,2.79,9.42,9.42,0,0,1,.78,3.87v11.63a.82.82,0,0,1-.8.8A.73.73,0,0,1,137,126a.78.78,0,0,1-.22-.56V113.84a8.32,8.32,0,0,0-.56-3.11,4.85,4.85,0,0,0-1.75-2.23,5.45,5.45,0,0,0-3.19-.84,7.26,7.26,0,0,0-3.35.84,7.62,7.62,0,0,0-2.69,2.23,5,5,0,0,0-1.06,3.11v11.63a.79.79,0,0,1-.23.56.77.77,0,0,1-.56.24.75.75,0,0,1-.58-.24.78.78,0,0,1-.22-.56V97.58a.77.77,0,0,1,.24-.56A.8.8,0,0,1,124,97a.83.83,0,0,1,.21.56v13.91l-1,1.91a5.65,5.65,0,0,1,.72-2.75,8.08,8.08,0,0,1,1.89-2.33,9.22,9.22,0,0,1,2.61-1.6A7.72,7.72,0,0,1,131.3,106.15Z"/><path class="cls-2" d="M153.81,126.67a10.69,10.69,0,0,1-5.28-1.28,9.23,9.23,0,0,1-3.6-3.6,11,11,0,0,1-1.32-5.48,11.6,11.6,0,0,1,1.3-5.7,9.5,9.5,0,0,1,3.34-3.61,8.31,8.31,0,0,1,4.37-1.25,10.19,10.19,0,0,1,3.27.54,7.91,7.91,0,0,1,2.85,1.67,8.73,8.73,0,0,1,2,2.83,10.43,10.43,0,0,1,.85,4,.85.85,0,0,1-.23.58.76.76,0,0,1-.56.26H144.57l-.24-1.51h16.06l-.4.35v-.71a6.62,6.62,0,0,0-1.33-3.55,7.41,7.41,0,0,0-2.73-2.17,7.86,7.86,0,0,0-3.31-.74,6.57,6.57,0,0,0-2.51.54,7.48,7.48,0,0,0-2.43,1.63,8.34,8.34,0,0,0-1.82,2.77,11,11,0,0,0,.28,8.37,7.79,7.79,0,0,0,2.91,3.27,8.71,8.71,0,0,0,4.76,1.23,7.12,7.12,0,0,0,2.55-.45,8.16,8.16,0,0,0,2.16-1.22,7.64,7.64,0,0,0,1.55-1.63.91.91,0,0,1,.68-.36.64.64,0,0,1,.48.22.72.72,0,0,1,.2.5.76.76,0,0,1-.16.47,11.65,11.65,0,0,1-3.17,2.79A8,8,0,0,1,153.81,126.67Z"/><path class="cls-2" d="M179.36,124.76a.77.77,0,0,1,.56.24.73.73,0,0,1,.23.51.71.71,0,0,1-.23.54.79.79,0,0,1-.56.22h-13a.71.71,0,0,1-.62-.3.88.88,0,0,1-.22-.5.64.64,0,0,1,.06-.28,1.42,1.42,0,0,1,.14-.23l12.83-18,.2.32h-11.2A.77.77,0,0,1,167,107a.72.72,0,0,1-.24-.52A.68.68,0,0,1,167,106a.79.79,0,0,1,.56-.22h12.2a.68.68,0,0,1,.53.24.91.91,0,0,1,.26.55.73.73,0,0,1-.06.3,1.08,1.08,0,0,1-.14.26L167.6,125l-.6-.2Z"/><circle class="cls-2" cx="21.02" cy="19.92" r="5.54"/><circle class="cls-2" cx="36.64" cy="20.46" r="2.84"/><circle class="cls-2" cx="30.71" cy="31.77" r="4.46"/></g></g></svg>